<svg width="162" height="144" viewBox="0 0 162 144" fill="none" xmlns="http://www.w3.org/2000/svg">
<g id="club 2 1">
<path id="Vector" d="M104.241 30.8681V32.5081C108.716 34.1203 109.395 37.706 109.381 47.1985L109.27 117.635C109.27 125.71 115.768 132.256 123.817 132.27H124.759L124.898 47.2263C124.912 37.6087 125.604 34.0369 130.218 32.4664V30.9098L104.255 30.8681H104.241Z" fill="#272963"/>
<path id="Vector_2" d="M51.3168 52.9524C47.7701 54.2728 44.5004 56.2602 41.688 58.7897C39.0418 61.208 36.9082 64.1266 35.3981 67.3649C32.2254 74.7171 32.3778 83.0839 35.7999 90.311C37.6009 93.9245 40.2194 97.0794 43.4337 99.4977C46.7587 102.138 52.8824 105.863 61.8185 110.644C65.2683 112.437 68.621 114.397 71.863 116.523C74.4538 118.163 76.906 120.039 79.192 122.096C80.7437 123.444 82.0044 125.098 82.8773 126.961C83.5423 128.517 83.8748 130.185 83.8748 131.881C83.8748 133.813 83.4176 135.703 82.5447 137.412C81.6304 139.191 80.4112 140.803 78.9149 142.152C78.1529 142.833 77.3355 143.444 76.4626 143.972C96.5239 144.653 100.971 128.114 94.1132 116.106C90.1093 109.088 80.993 104.265 74.149 100.081C71.8353 98.6777 71.3919 98.372 68.8981 96.8571C66.4043 95.3561 64.1183 93.994 61.9848 92.7293C59.8789 91.4506 58.0917 90.3666 56.5954 89.4771C55.0991 88.5598 54.1986 88.0039 53.8383 87.7954C51.3722 85.9469 49.3079 83.6259 47.7424 80.9574C46.4955 78.7476 45.8166 76.2459 45.7889 73.7164C45.7889 71.6595 46.2461 69.6165 47.1189 67.7541C48.0195 65.8222 49.3079 64.1127 50.9151 62.6951C52.7023 61.1802 54.7666 60.0127 56.9972 59.2622C59.6018 58.3727 62.3173 57.9419 65.0604 57.9836C69.9649 57.9141 74.814 59.0816 79.1643 61.3609C81.1593 62.3894 83.0297 63.668 84.7337 65.1412C86.2993 66.5171 87.657 68.1293 88.7377 69.9083C89.943 71.9792 90.8851 74.1751 91.5501 76.4683C92.4507 79.4703 93.1434 82.5279 93.656 85.6273H96.898L96.9534 50.8538H93.7114C93.6144 52.4382 93.0741 53.967 92.1459 55.2595C91.4116 56.01 90.3864 56.4131 89.3334 56.3436C88.2805 56.2602 87.2275 56.0656 86.2162 55.7599C84.7753 55.3429 82.9327 54.7731 80.6467 54.106C74.4815 52.2853 68.8566 50.7426 63.0238 50.7287C59.2693 50.7287 55.4316 51.3541 51.303 52.9385" fill="#272963"/>
<path id="Vector_3" d="M35.1626 0.0555931L0.166253 0V1.69559C1.45472 2.20983 2.54922 2.82135 3.39434 3.83592C4.76593 5.51761 5.43094 11.2159 5.43094 17.0671L5.32011 87.4896C5.32011 92.9239 4.75207 98.9001 3.65757 100.485C2.77089 101.791 1.52399 102.402 0 103.028V104.543L25.2012 104.585C24.7025 103.792 24.2453 102.986 23.8296 102.138C22.9014 100.276 22.2225 98.3025 21.793 96.2733C21.128 93.3964 20.8509 90.4639 20.9618 87.5174L21.031 50.0199L21.1003 6.30982C25.2705 5.23965 29.5792 4.71151 33.888 4.76711C37.8503 4.71151 41.7989 5.28134 45.5811 6.4349C48.6568 7.36608 51.5108 8.881 54.0185 10.8823C56.1936 12.6335 57.9254 14.8573 59.1031 17.3867C62.1372 23.9884 61.5969 32.0494 56.1105 37.0667C65.5731 44.0575 71.8491 41.1389 74.3984 34.0786C77.1554 26.1149 75.4929 17.2756 70.0481 10.8546C68.4548 8.97828 66.5983 7.33829 64.5479 5.99016C62.3034 4.54473 59.865 3.41898 57.3158 2.65457C54.1709 1.72339 50.9566 1.07017 47.7008 0.694914C43.7939 0.277965 39.8731 0.0555931 35.9523 0.0555931C35.689 0.0555931 35.4258 0.0555931 35.1764 0.0555931" fill="#272963"/>
<g id="Group">
<path id="Vector_4" d="M154.075 95.092C154.075 96.3428 153.867 97.5103 153.452 98.5804C153.036 99.6506 152.454 100.582 151.692 101.374C150.93 102.166 150.044 102.778 149.018 103.209C147.993 103.639 146.871 103.862 145.652 103.862C144.433 103.862 143.31 103.639 142.285 103.209C141.26 102.778 140.359 102.152 139.611 101.36C138.849 100.568 138.267 99.6367 137.852 98.5665C137.436 97.5103 137.228 96.3428 137.228 95.0781C137.228 93.7299 137.464 92.5069 137.921 91.395C138.378 90.2832 139.057 89.352 139.971 88.5876L141.814 90.5611C141.177 91.1588 140.692 91.8259 140.373 92.5486C140.055 93.2852 139.888 94.0774 139.888 94.9391C139.888 95.8008 140.027 96.5791 140.304 97.3018C140.581 98.0245 140.983 98.636 141.495 99.1503C142.008 99.6784 142.618 100.081 143.324 100.373C144.031 100.665 144.793 100.804 145.638 100.804C146.483 100.804 147.245 100.665 147.952 100.373C148.658 100.081 149.254 99.6784 149.78 99.1503C150.307 98.6221 150.695 98.0106 150.972 97.3018C151.249 96.593 151.388 95.8008 151.388 94.9391C151.388 94.0774 151.221 93.2852 150.903 92.5486C150.584 91.812 150.099 91.1449 149.448 90.5611L151.318 88.5876C152.205 89.352 152.884 90.2971 153.355 91.395C153.826 92.5069 154.061 93.7438 154.061 95.1059L154.075 95.092Z" fill="#272963"/>
<path id="Vector_5" d="M153.84 83.5008H137.478V80.4571H151.263V71.8819H153.84V83.5147V83.5008Z" fill="#272963"/>
<path id="Vector_6" d="M154.075 60.2907C154.075 62.5422 153.438 64.3073 152.177 65.5721C150.916 66.8507 149.088 67.49 146.705 67.49H137.478V64.4463H146.594C148.27 64.4463 149.503 64.0849 150.265 63.3622C151.027 62.6395 151.415 61.611 151.415 60.2768C151.415 58.9426 151.027 57.928 150.265 57.2053C149.503 56.4826 148.284 56.1212 146.594 56.1212H137.478V53.1192H146.705C149.088 53.1192 150.916 53.7585 152.177 55.0372C153.438 56.3158 154.075 58.067 154.075 60.3046V60.2907Z" fill="#272963"/>
<path id="Vector_7" d="M153.84 46.5036H137.478V38.8179C137.478 36.8443 137.866 35.3433 138.641 34.3148C139.417 33.2864 140.443 32.7721 141.745 32.7721C142.618 32.7721 143.366 32.9806 143.975 33.3837C144.585 33.7867 145.07 34.3287 145.402 35.0097C145.735 35.6908 145.901 36.4274 145.901 37.2196L145.056 36.8026C145.056 35.8853 145.222 35.0514 145.555 34.3148C145.887 33.5782 146.372 32.9945 147.01 32.5637C147.647 32.1328 148.437 31.9243 149.392 31.9243C150.792 31.9243 151.886 32.4664 152.662 33.5365C153.438 34.6206 153.826 36.2189 153.826 38.3453V46.5036H153.84ZM151.457 43.4599V38.5399C151.457 37.4003 151.277 36.5247 150.903 35.9131C150.529 35.3016 149.933 34.9959 149.102 34.9959C148.27 34.9959 147.702 35.3016 147.314 35.9131C146.926 36.5247 146.746 37.4003 146.746 38.5399V43.6962H144.391V39.1514C144.391 38.0952 144.197 37.2752 143.837 36.7053C143.463 36.1355 142.895 35.8436 142.16 35.8436C141.426 35.8436 140.83 36.1355 140.456 36.7053C140.082 37.2752 139.888 38.0952 139.888 39.1514V43.4599H151.484H151.457Z" fill="#272963"/>
</g>
<path id="Vector_8" d="M146.857 132.826C152.764 132.826 157.553 128.022 157.553 122.096C157.553 116.171 152.764 111.367 146.857 111.367C140.95 111.367 136.161 116.171 136.161 122.096C136.161 128.022 140.95 132.826 146.857 132.826Z" fill="#E26026"/>
</g>
</svg>
