<svg width="135" height="41" viewBox="0 0 135 41" fill="none" xmlns="http://www.w3.org/2000/svg">
<g id="Badges" clip-path="url(#clip0_4_2540)">
<path id="Vector" fill-rule="evenodd" clip-rule="evenodd" d="M130.007 40.9086H5.09723C2.34241 40.9086 0.0988464 38.6558 0.0988464 35.9121V5.93282C0.0988464 3.17912 2.34241 0.936279 5.09723 0.936279H130.007C132.759 0.936279 135.006 3.17912 135.006 5.93282V35.9121C135.006 38.6558 132.759 40.9086 130.007 40.9086Z" fill="black"/>
<path id="Vector_2" fill-rule="evenodd" clip-rule="evenodd" d="M130.007 1.73622C132.318 1.73622 134.209 3.6227 134.209 5.93282V35.9121C134.209 38.2222 132.33 40.1087 130.007 40.1087H5.09723C2.78666 40.1087 0.89551 38.2222 0.89551 35.9121V5.93282C0.89551 3.6227 2.77425 1.73622 5.09723 1.73622H130.007ZM130.007 0.936279H5.09723C2.34241 0.936279 0.0988464 3.18908 0.0988464 5.93282V35.9121C0.0988464 38.6658 2.34241 40.9086 5.09723 40.9086H130.007C132.759 40.9086 135.006 38.6658 135.006 35.9121V5.93282C135.006 3.18908 132.759 0.936279 130.007 0.936279Z" fill="#A6A6A6"/>
<g id="&#60;Group&#62;">
<g id="&#60;Group&#62;_2">
<g id="&#60;Group&#62;_3">
<path id="&#60;Path&#62;" d="M28.0227 20.2236C28.0348 19.3895 28.2848 18.5717 28.7493 17.8462C29.2138 17.1208 29.8778 16.5112 30.6795 16.0744C30.1702 15.4297 29.4983 14.8991 28.7172 14.5248C27.9362 14.1505 27.0674 13.9428 26.1799 13.9182C24.2868 13.7421 22.4515 14.9223 21.4867 14.9223C20.5034 14.9223 19.018 13.9357 17.4186 13.9648C16.384 13.9945 15.3758 14.2611 14.492 14.7389C13.6083 15.2166 12.8793 15.8891 12.3759 16.6908C10.1956 20.0369 11.8219 24.9546 13.9105 27.6593C14.9555 28.9838 16.1767 30.4632 17.7747 30.4107C19.3385 30.3532 19.9225 29.5268 21.8101 29.5268C23.6801 29.5268 24.2281 30.4107 25.8585 30.3774C27.5365 30.3532 28.5937 29.047 29.602 27.7101C30.3528 26.7664 30.9305 25.7234 31.3138 24.6197C30.339 24.2542 29.507 23.6425 28.9218 22.8607C28.3365 22.079 28.0239 21.1618 28.0227 20.2236Z" fill="white"/>
<path id="&#60;Path&#62;_2" d="M24.9431 12.1395C25.858 11.1659 26.3088 9.9146 26.1996 8.65125C24.8019 8.78138 23.5107 9.37352 22.5835 10.3097C22.1301 10.7671 21.7829 11.2991 21.5616 11.8755C21.3404 12.4519 21.2495 13.0612 21.2941 13.6688C21.9932 13.6752 22.6849 13.5408 23.3169 13.2759C23.949 13.011 24.5051 12.6224 24.9431 12.1395Z" fill="white"/>
</g>
</g>
<g id="Group">
<path id="Vector_3" d="M47.7895 27.0581H42.4532L41.1716 30.4122H38.9114L43.9659 18.0028H46.3142L51.3687 30.4122H49.0699L47.7895 27.0581ZM43.0058 25.5103H47.2357L45.1505 20.0668H45.0922L43.0058 25.5103Z" fill="white"/>
<path id="Vector_4" d="M62.2847 25.8889C62.2847 28.7004 60.587 30.5068 58.0251 30.5068C57.3761 30.5368 56.7307 30.4043 56.1627 30.1244C55.5948 29.8444 55.1272 29.4284 54.8136 28.9239H54.7651V33.4051H52.67V21.3646H54.698V22.8695H54.7365C55.0646 22.3673 55.54 21.9534 56.1123 21.6718C56.6846 21.3901 57.3323 21.2513 57.9866 21.27C60.5771 21.27 62.2847 23.0851 62.2847 25.8889ZM60.1312 25.8889C60.1312 24.0571 59.0633 22.8529 57.4339 22.8529C55.8331 22.8529 54.7563 24.0825 54.7563 25.8889C54.7563 27.7118 55.8331 28.9327 57.4339 28.9327C59.0633 28.9327 60.1312 27.7372 60.1312 25.8889Z" fill="white"/>
<path id="Vector_5" d="M73.5188 25.8889C73.5188 28.7004 71.8211 30.5067 69.2592 30.5067C68.6102 30.5368 67.9648 30.4043 67.3969 30.1244C66.8289 29.8444 66.3613 29.4284 66.0477 28.9238H65.9993V33.4051H63.9041V21.3646H65.9321V22.8695H65.9706C66.2986 22.3673 66.7741 21.9534 67.3464 21.6718C67.9187 21.3901 68.5664 21.2513 69.2207 21.27C71.8112 21.27 73.5188 23.0851 73.5188 25.8889ZM71.3654 25.8889C71.3654 24.0571 70.2974 22.8529 68.668 22.8529C67.0672 22.8529 65.9905 24.0825 65.9905 25.8889C65.9905 27.7118 67.0672 28.9326 68.668 28.9326C70.2974 28.9326 71.3654 27.7372 71.3654 25.8889H71.3654Z" fill="white"/>
<path id="Vector_6" d="M80.9437 26.9545C81.0989 28.1851 82.4476 28.9931 84.2906 28.9931C86.0565 28.9931 87.327 28.1851 87.327 27.0755C87.327 26.1123 86.5607 25.5356 84.7464 25.1403L82.932 24.7529C80.3613 24.2025 79.1678 23.1368 79.1678 21.4075C79.1678 19.2664 81.2729 17.7958 84.262 17.7958C87.2202 17.7958 89.2482 19.2664 89.3164 21.4075H87.2015C87.0749 20.1691 85.92 19.4216 84.2322 19.4216C82.5444 19.4216 81.3895 20.1779 81.3895 21.2787C81.3895 22.156 82.1272 22.6723 83.9316 23.0675L85.4741 23.4032C88.3465 24.0053 89.5399 25.0281 89.5399 26.8432C89.5399 29.1648 87.4536 30.6189 84.1353 30.6189C81.0306 30.6189 78.9344 29.199 78.799 26.9544L80.9437 26.9545Z" fill="white"/>
<path id="Vector_7" d="M94.0616 19.2236V21.3647H96.0026V22.8354H94.0616V27.8232C94.0616 28.598 94.4502 28.9591 95.3035 28.9591C95.5339 28.9555 95.7639 28.9412 95.9927 28.9161V30.378C95.609 30.4415 95.2191 30.4703 94.8289 30.4639C92.7625 30.4639 91.9566 29.7759 91.9566 28.0212V22.8354H90.4725V21.3647H91.9565V19.2236H94.0616Z" fill="white"/>
<path id="Vector_8" d="M97.1266 25.8888C97.1266 23.0421 99.0181 21.2533 101.968 21.2533C104.927 21.2533 106.81 23.0421 106.81 25.8888C106.81 28.7432 104.937 30.5242 101.968 30.5242C98.9993 30.5242 97.1266 28.7432 97.1266 25.8888ZM104.675 25.8888C104.675 23.936 103.665 22.7835 101.968 22.7835C100.27 22.7835 99.2614 23.9448 99.2614 25.8888C99.2614 27.8493 100.27 28.9931 101.968 28.9931C103.665 28.9931 104.675 27.8493 104.675 25.8888H104.675Z" fill="white"/>
<path id="Vector_9" d="M108.537 21.3649H110.535V22.9049H110.584C110.719 22.4239 111.037 21.9989 111.484 21.7012C111.931 21.4035 112.48 21.2513 113.039 21.2702C113.28 21.2695 113.521 21.2927 113.757 21.3395V23.0766C113.452 22.9941 113.134 22.9562 112.815 22.9644C112.511 22.9535 112.207 23.001 111.926 23.1038C111.644 23.2067 111.391 23.3623 111.183 23.56C110.976 23.7578 110.819 23.993 110.724 24.2495C110.629 24.506 110.598 24.7777 110.632 25.046V30.4124H108.537L108.537 21.3649Z" fill="white"/>
<path id="Vector_10" d="M123.416 27.7547C123.134 29.3971 121.33 30.5242 119.021 30.5242C116.052 30.5242 114.209 28.7608 114.209 25.9317C114.209 23.0938 116.062 21.2533 118.933 21.2533C121.757 21.2533 123.533 22.9728 123.533 25.716V26.3523H116.324V26.4645C116.291 26.7975 116.338 27.1329 116.462 27.4486C116.586 27.7642 116.785 28.0528 117.044 28.2951C117.304 28.5375 117.619 28.7282 117.968 28.8544C118.317 28.9806 118.693 29.0395 119.07 29.0272C119.565 29.0683 120.062 28.9667 120.486 28.7374C120.911 28.5081 121.241 28.1634 121.427 27.7546L123.416 27.7547ZM116.334 25.0544H121.437C121.456 24.755 121.404 24.4554 121.286 24.1744C121.168 23.8934 120.986 23.637 120.751 23.4214C120.516 23.2058 120.233 23.0355 119.92 22.9214C119.608 22.8073 119.271 22.7517 118.933 22.7581C118.592 22.7563 118.254 22.8144 117.938 22.9291C117.622 23.0437 117.335 23.2127 117.094 23.4262C116.852 23.6397 116.661 23.8935 116.53 24.1729C116.4 24.4524 116.333 24.752 116.334 25.0544V25.0544Z" fill="white"/>
</g>
</g>
<g id="&#60;Group&#62;_4">
<g id="Group_2">
<path id="Vector_11" d="M43.5003 8.22527C43.9395 8.19733 44.3803 8.25615 44.7908 8.39749C45.2013 8.53882 45.5713 8.75915 45.8741 9.04258C46.1769 9.32601 46.4049 9.66547 46.5418 10.0365C46.6787 10.4075 46.7209 10.8008 46.6655 11.1881C46.6655 13.093 45.504 14.188 43.5003 14.188H41.0705V8.22527H43.5003ZM42.1153 13.3447H43.3836C43.6975 13.3614 44.0116 13.3157 44.303 13.2112C44.5945 13.1067 44.856 12.9458 45.0685 12.7404C45.281 12.535 45.4392 12.2901 45.5315 12.0237C45.6237 11.7573 45.6479 11.4759 45.602 11.2002C45.6445 10.9256 45.618 10.646 45.5243 10.3815C45.4306 10.117 45.272 9.8742 45.06 9.67041C44.848 9.46662 44.5877 9.30692 44.2979 9.20275C44.0081 9.09859 43.6959 9.05254 43.3836 9.0679H42.1153V13.3447Z" fill="white"/>
<path id="Vector_12" d="M47.8457 11.936C47.8138 11.6402 47.852 11.3419 47.9578 11.06C48.0636 10.7781 48.2347 10.519 48.4601 10.2991C48.6855 10.0793 48.9602 9.90367 49.2667 9.78348C49.5732 9.66328 49.9046 9.6012 50.2398 9.6012C50.5749 9.6012 50.9063 9.66328 51.2128 9.78348C51.5193 9.90367 51.794 10.0793 52.0195 10.2991C52.2449 10.519 52.416 10.7781 52.5218 11.06C52.6275 11.3419 52.6657 11.6402 52.6338 11.936C52.6663 12.232 52.6286 12.5308 52.5231 12.8131C52.4176 13.0954 52.2466 13.355 52.0211 13.5753C51.7957 13.7956 51.5207 13.9716 51.2139 14.092C50.9071 14.2125 50.5753 14.2747 50.2398 14.2747C49.9042 14.2747 49.5724 14.2125 49.2656 14.092C48.9588 13.9716 48.6839 13.7956 48.4584 13.5753C48.2329 13.355 48.062 13.0954 47.9564 12.8131C47.8509 12.5308 47.8132 12.232 47.8457 11.936ZM51.6033 11.936C51.6033 10.9606 51.109 10.3902 50.2414 10.3902C49.3706 10.3902 48.8807 10.9606 48.8807 11.936C48.8807 12.9192 49.3706 13.4852 50.2414 13.4852C51.109 13.4852 51.6033 12.9153 51.6033 11.936H51.6033Z" fill="white"/>
<path id="Vector_13" d="M58.9984 14.188H57.9591L56.9099 10.8739H56.8307L55.7859 14.188H54.7565L53.3571 9.68823H54.3733L55.2827 13.1219H55.3576L56.4013 9.68823H57.3624L58.4061 13.1219H58.4854L59.3904 9.68823H60.3923L58.9984 14.188Z" fill="white"/>
<path id="Vector_14" d="M61.5692 9.68821H62.5336V10.403H62.6085C62.7355 10.1463 62.9497 9.93108 63.2212 9.78738C63.4928 9.64367 63.8081 9.57864 64.1234 9.60135C64.3704 9.58489 64.6184 9.6179 64.8491 9.69795C65.0797 9.77799 65.2871 9.903 65.4559 10.0637C65.6246 10.2245 65.7504 10.4168 65.8239 10.6265C65.8974 10.8361 65.9167 11.0578 65.8805 11.275V14.188H64.8786V11.498C64.8786 10.7749 64.5241 10.4153 63.7832 10.4153C63.6155 10.4083 63.4481 10.4336 63.2924 10.4894C63.1368 10.5452 62.9966 10.6302 62.8814 10.7385C62.7663 10.8468 62.679 10.9759 62.6254 11.1169C62.5718 11.258 62.5533 11.4076 62.571 11.5556V14.188H61.5692L61.5692 9.68821Z" fill="white"/>
<path id="Vector_15" d="M67.4769 7.9314H68.4788V14.1878H67.4769V7.9314Z" fill="white"/>
<path id="Vector_16" d="M69.8715 11.936C69.8396 11.6403 69.8778 11.3419 69.9836 11.06C70.0894 10.7782 70.2605 10.519 70.4859 10.2992C70.7114 10.0793 70.9862 9.90367 71.2927 9.78348C71.5992 9.66328 71.9306 9.6012 72.2658 9.6012C72.6009 9.6012 72.9324 9.66328 73.2389 9.78348C73.5454 9.90367 73.8202 10.0793 74.0456 10.2992C74.271 10.519 74.4421 10.7782 74.548 11.06C74.6538 11.3419 74.692 11.6403 74.6601 11.936C74.6926 12.2321 74.6548 12.5309 74.5493 12.8132C74.4437 13.0955 74.2727 13.3551 74.0472 13.5754C73.8217 13.7957 73.5467 13.9717 73.2399 14.0921C72.9331 14.2125 72.6013 14.2748 72.2658 14.2748C71.9302 14.2748 71.5984 14.2125 71.2916 14.0921C70.9848 13.9717 70.7098 13.7957 70.4843 13.5754C70.2588 13.3551 70.0878 13.0955 69.9823 12.8132C69.8767 12.5309 69.839 12.2321 69.8715 11.936ZM73.629 11.936C73.629 10.9606 73.1347 10.3902 72.2671 10.3902C71.3963 10.3902 70.9064 10.9606 70.9064 11.9361C70.9064 12.9193 71.3963 13.4853 72.2671 13.4853C73.1347 13.4853 73.629 12.9153 73.629 11.936H73.629Z" fill="white"/>
<path id="Vector_17" d="M75.7148 12.9153C75.7148 12.1053 76.3952 11.6384 77.6029 11.572L78.978 11.5017V11.1133C78.978 10.6381 78.6235 10.3697 77.9387 10.3697C77.3794 10.3697 76.9919 10.5517 76.8807 10.8698H75.9108C76.0131 10.0969 76.8334 9.6012 77.985 9.6012C79.2577 9.6012 79.9755 10.1628 79.9755 11.1133V14.1879H79.011V13.5555H78.9318C78.7709 13.7823 78.5449 13.9672 78.2771 14.0914C78.0092 14.2155 77.7089 14.2744 77.4069 14.262C77.1938 14.2817 76.9784 14.2615 76.7747 14.2028C76.5709 14.1442 76.3832 14.0483 76.2238 13.9214C76.0644 13.7946 75.9367 13.6395 75.849 13.4662C75.7614 13.2929 75.7156 13.1052 75.7148 12.9153ZM78.978 12.5308V12.1546L77.7383 12.2249C77.0392 12.2663 76.7221 12.4771 76.7221 12.8738C76.7221 13.2788 77.1185 13.5145 77.6635 13.5145C77.8232 13.5288 77.9845 13.5145 78.1378 13.4725C78.2912 13.4304 78.4334 13.3614 78.556 13.2697C78.6787 13.1779 78.7792 13.0652 78.8517 12.9382C78.9242 12.8113 78.9672 12.6727 78.978 12.5308Z" fill="white"/>
<path id="Vector_18" d="M81.2922 11.936C81.2922 10.5141 82.1169 9.61335 83.3995 9.61335C83.7167 9.60039 84.0316 9.66775 84.3073 9.80755C84.5829 9.94735 84.808 10.1538 84.9562 10.4028H85.0311V7.9314H86.0329V14.1878H85.0729V13.4769H84.9937C84.834 13.7242 84.6011 13.9281 84.3201 14.0665C84.0391 14.2049 83.7207 14.2725 83.3995 14.262C82.108 14.262 81.2922 13.3612 81.2922 11.936ZM82.3272 11.936C82.3272 12.8904 82.8347 13.4647 83.6836 13.4647C84.528 13.4647 85.0498 12.8821 85.0498 11.9399C85.0498 11.002 84.5225 10.4111 83.6836 10.4111C82.8402 10.4111 82.3271 10.9894 82.3271 11.936H82.3272Z" fill="white"/>
<path id="Vector_19" d="M90.178 11.936C90.1461 11.6402 90.1843 11.3419 90.2901 11.06C90.3958 10.7781 90.5669 10.519 90.7923 10.2991C91.0178 10.0793 91.2925 9.90367 91.599 9.78348C91.9055 9.66328 92.2369 9.6012 92.572 9.6012C92.9072 9.6012 93.2386 9.66328 93.5451 9.78348C93.8516 9.90367 94.1263 10.0793 94.3517 10.2991C94.5771 10.519 94.7482 10.7781 94.854 11.06C94.9598 11.3419 94.998 11.6402 94.9661 11.936C94.9986 12.232 94.9609 12.5308 94.8554 12.8131C94.7498 13.0954 94.5789 13.355 94.3534 13.5753C94.1279 13.7956 93.853 13.9716 93.5462 14.092C93.2394 14.2125 92.9076 14.2747 92.572 14.2747C92.2365 14.2747 91.9047 14.2125 91.5979 14.092C91.2911 13.9716 91.0161 13.7956 90.7907 13.5753C90.5652 13.355 90.3942 13.0954 90.2887 12.8131C90.1832 12.5308 90.1455 12.232 90.178 11.936ZM93.9356 11.936C93.9356 10.9606 93.4412 10.3902 92.5737 10.3902C91.7028 10.3902 91.2129 10.9606 91.2129 11.936C91.2129 12.9192 91.7029 13.4852 92.5737 13.4852C93.4412 13.4852 93.9356 12.9153 93.9356 11.936Z" fill="white"/>
<path id="Vector_20" d="M96.3104 9.68821H97.2748V10.403H97.3497C97.4767 10.1463 97.6909 9.93108 97.9624 9.78738C98.234 9.64367 98.5494 9.57864 98.8646 9.60135C99.1116 9.58489 99.3596 9.6179 99.5903 9.69795C99.8209 9.77799 100.028 9.903 100.197 10.0637C100.366 10.2245 100.492 10.4168 100.565 10.6265C100.639 10.8361 100.658 11.0578 100.622 11.275V14.188H99.6198V11.498C99.6198 10.7749 99.2653 10.4153 98.5244 10.4153C98.3567 10.4083 98.1893 10.4336 98.0336 10.4894C97.878 10.5452 97.7378 10.6302 97.6227 10.7385C97.5075 10.8468 97.4202 10.9759 97.3666 11.1169C97.313 11.258 97.2945 11.4076 97.3122 11.5556V14.188H96.3104V9.68821Z" fill="white"/>
<path id="Vector_21" d="M106.283 8.56763V9.70844H107.383V10.4565H106.283V12.7703C106.283 13.2416 106.502 13.448 107.001 13.448C107.128 13.4477 107.256 13.4408 107.383 13.4275V14.1673C107.203 14.1958 107.02 14.211 106.838 14.2126C105.724 14.2126 105.28 13.8652 105.28 12.9977V10.4564H104.474V9.7084H105.28V8.56763H106.283Z" fill="white"/>
<path id="Vector_22" d="M108.751 7.9314H109.744V10.4111H109.823C109.957 10.152 110.177 9.93555 110.454 9.7913C110.731 9.64705 111.051 9.58201 111.371 9.60505C111.617 9.5932 111.863 9.62956 112.091 9.71155C112.319 9.79353 112.524 9.91912 112.691 10.0793C112.858 10.2396 112.983 10.4305 113.057 10.6385C113.131 10.8465 113.152 11.0664 113.12 11.2826V14.1878H112.117V11.5017C112.117 10.7829 111.739 10.4189 111.031 10.4189C110.859 10.4064 110.686 10.4274 110.524 10.4804C110.362 10.5334 110.215 10.6172 110.093 10.7259C109.971 10.8345 109.878 10.9654 109.819 11.1095C109.76 11.2535 109.738 11.4072 109.753 11.5597V14.1878H108.751L108.751 7.9314Z" fill="white"/>
<path id="Vector_23" d="M118.961 12.973C118.825 13.3842 118.53 13.74 118.128 13.9779C117.726 14.2159 117.242 14.321 116.762 14.2748C116.427 14.2826 116.095 14.2258 115.788 14.1084C115.48 13.9909 115.206 13.8156 114.983 13.5947C114.76 13.3737 114.593 13.1123 114.496 12.8287C114.398 12.545 114.371 12.246 114.417 11.9522C114.372 11.6575 114.4 11.3578 114.497 11.0733C114.595 10.7888 114.76 10.5262 114.982 10.3033C115.204 10.0804 115.477 9.90236 115.783 9.78123C116.09 9.66011 116.422 9.59874 116.757 9.60127C118.17 9.60127 119.022 10.4567 119.022 11.8697V12.1796H115.437V12.2293C115.422 12.3945 115.445 12.5607 115.506 12.7173C115.567 12.874 115.664 13.0176 115.792 13.139C115.919 13.2603 116.073 13.3568 116.245 13.4221C116.417 13.4875 116.602 13.5203 116.789 13.5185C117.029 13.544 117.272 13.5057 117.487 13.4086C117.702 13.3114 117.879 13.1598 117.997 12.9729L118.961 12.973ZM115.437 11.5228H118.001C118.014 11.3718 117.991 11.2201 117.933 11.0775C117.876 10.9348 117.785 10.8044 117.668 10.6947C117.55 10.5849 117.408 10.4981 117.25 10.44C117.092 10.3819 116.923 10.3536 116.752 10.3571C116.578 10.3552 116.407 10.384 116.246 10.4419C116.086 10.4998 115.94 10.5856 115.817 10.6943C115.695 10.8029 115.598 10.9322 115.533 11.0745C115.467 11.2168 115.435 11.3692 115.437 11.5228H115.437Z" fill="white"/>
</g>
</g>
</g>
<defs>
<clipPath id="clip0_4_2540">
<rect width="134.907" height="39.9723" fill="white" transform="translate(0.0988464 0.936279)"/>
</clipPath>
</defs>
</svg>
