<svg width="344" height="157" viewBox="0 0 344 157" fill="none" xmlns="http://www.w3.org/2000/svg">
<rect x="0.401392" y="0.305664" width="21.1678" height="156.642" rx="10.5839" fill="#F5F5F5"/>
<rect x="6.75174" y="82.8599" width="8.46713" height="67.737" rx="4.23357" fill="#486DA5"/>
<rect x="46.3658" y="0.305664" width="21.1678" height="156.642" rx="10.5839" fill="#F5F5F5"/>
<rect x="52.7162" y="39.4658" width="8.46713" height="111.131" rx="4.23357" fill="#486DA5"/>
<rect x="92.3302" y="0.305664" width="21.1678" height="156.642" rx="10.5839" fill="#F5F5F5"/>
<rect x="98.6806" y="109.32" width="8.46713" height="41.2773" rx="4.23357" fill="#486DA5"/>
<rect x="138.295" y="0.305664" width="21.1678" height="156.642" rx="10.5839" fill="#F5F5F5"/>
<rect x="144.645" y="72.2759" width="8.46713" height="78.321" rx="4.23357" fill="#486DA5"/>
<rect x="184.259" y="0.305664" width="21.1678" height="156.642" rx="10.5839" fill="#F5F5F5"/>
<rect x="190.609" y="91.3271" width="8.46713" height="59.2699" rx="4.23357" fill="#486DA5"/>
<rect x="230.224" y="0.305664" width="21.1678" height="156.642" rx="10.5839" fill="#F5F5F5"/>
<rect x="236.574" y="48.9912" width="8.46713" height="101.606" rx="4.23357" fill="#486DA5"/>
<rect x="276.188" y="0.305664" width="21.1678" height="156.642" rx="10.5839" fill="#F5F5F5"/>
<rect x="282.538" y="77.5679" width="8.46713" height="73.029" rx="4.23357" fill="#486DA5"/>
<rect x="322.152" y="0.305664" width="21.1678" height="156.642" rx="10.5839" fill="#F5F5F5"/>
<rect x="328.503" y="98.7358" width="8.46713" height="51.8612" rx="4.23357" fill="#486DA5"/>
</svg>
