<svg width="344" height="157" viewBox="0 0 344 157" fill="none" xmlns="http://www.w3.org/2000/svg">
<rect x="0.189423" width="21.1678" height="156.642" rx="10.5839" fill="#F5F5F5"/>
<rect x="6.53976" y="82.5542" width="8.46713" height="67.737" rx="4.23357" fill="#7D5FA5"/>
<rect x="46.1538" width="21.1678" height="156.642" rx="10.5839" fill="#F5F5F5"/>
<rect x="52.5042" y="39.1602" width="8.46713" height="111.131" rx="4.23357" fill="#7D5FA5"/>
<rect x="92.1183" width="21.1678" height="156.642" rx="10.5839" fill="#F5F5F5"/>
<rect x="98.4686" y="109.014" width="8.46713" height="41.2773" rx="4.23357" fill="#7D5FA5"/>
<rect x="138.083" width="21.1678" height="156.642" rx="10.5839" fill="#F5F5F5"/>
<rect x="144.433" y="71.9702" width="8.46713" height="78.321" rx="4.23357" fill="#7D5FA5"/>
<rect x="184.047" width="21.1678" height="156.642" rx="10.5839" fill="#F5F5F5"/>
<rect x="190.397" y="91.0215" width="8.46713" height="59.2699" rx="4.23357" fill="#7D5FA5"/>
<rect x="230.012" width="21.1678" height="156.642" rx="10.5839" fill="#F5F5F5"/>
<rect x="236.362" y="48.6855" width="8.46713" height="101.606" rx="4.23357" fill="#7D5FA5"/>
<rect x="275.976" width="21.1678" height="156.642" rx="10.5839" fill="#F5F5F5"/>
<rect x="282.326" y="77.2622" width="8.46713" height="73.029" rx="4.23357" fill="#7D5FA5"/>
<rect x="321.94" width="21.1678" height="156.642" rx="10.5839" fill="#F5F5F5"/>
<rect x="328.291" y="98.4302" width="8.46713" height="51.8612" rx="4.23357" fill="#7D5FA5"/>
</svg>
