<svg width="135" height="41" viewBox="0 0 135 41" fill="none" xmlns="http://www.w3.org/2000/svg">
<g id="Badges" clip-path="url(#clip0_4_2572)">
<path id="Vector" fill-rule="evenodd" clip-rule="evenodd" d="M129.903 40.9087H4.99277C2.23795 40.9087 -0.00561523 38.6559 -0.00561523 35.9122V5.93294C-0.00561523 3.17924 2.23795 0.936401 4.99277 0.936401H129.903C132.655 0.936401 134.901 3.17924 134.901 5.93294V35.9122C134.901 38.6559 132.655 40.9087 129.903 40.9087Z" fill="black"/>
<path id="Vector_2" fill-rule="evenodd" clip-rule="evenodd" d="M129.903 1.73635C132.213 1.73635 134.104 3.62282 134.104 5.93294V35.9122C134.104 38.2223 132.226 40.1088 129.903 40.1088H4.99277C2.68219 40.1088 0.791048 38.2223 0.791048 35.9122V5.93294C0.791048 3.62282 2.66978 1.73635 4.99277 1.73635H129.903ZM129.903 0.936401H4.99277C2.23795 0.936401 -0.00561523 3.18921 -0.00561523 5.93294V35.9122C-0.00561523 38.6659 2.23795 40.9087 4.99277 40.9087H129.903C132.655 40.9087 134.901 38.6659 134.901 35.9122V5.93294C134.901 3.18921 132.655 0.936401 129.903 0.936401Z" fill="#A6A6A6"/>
<path id="Vector_3" d="M71.0636 14.1591C70.1627 14.1591 69.4033 13.8426 68.8027 13.2196C68.207 12.6141 67.8745 11.7792 67.8894 10.927C67.8894 10.0174 68.1971 9.24732 68.8027 8.63677C69.4008 8.01376 70.1602 7.69727 71.0611 7.69727C71.9521 7.69727 72.7115 8.01376 73.322 8.63677C73.9276 9.26725 74.2353 10.0373 74.2353 10.927C74.2254 11.839 73.9177 12.6091 73.322 13.2171C72.7239 13.8451 71.9645 14.1591 71.0636 14.1591ZM44.2576 14.1591C43.3766 14.1591 42.6122 13.8476 41.9868 13.2321C41.3663 12.619 41.0511 11.844 41.0511 10.9294C41.0511 10.0149 41.3663 9.23984 41.9868 8.6268C42.5998 8.01126 43.3642 7.69976 44.2576 7.69976C44.6944 7.69976 45.1188 7.78698 45.5258 7.96391C45.9254 8.13587 46.2505 8.37012 46.4913 8.6567L46.5508 8.72897L45.8783 9.39185L45.8088 9.30962C45.429 8.85607 44.9203 8.63427 44.2477 8.63427C43.6471 8.63427 43.1235 8.84859 42.6916 9.27224C42.2573 9.69838 42.0364 10.2566 42.0364 10.9319C42.0364 11.6073 42.2573 12.1655 42.6916 12.5916C43.1235 13.0153 43.6471 13.2296 44.2477 13.2296C44.888 13.2296 45.4266 13.0153 45.846 12.5916C46.0942 12.3424 46.248 11.9935 46.3026 11.5525H44.146V10.6204H47.2284L47.2408 10.7052C47.2631 10.8622 47.2854 11.0241 47.2854 11.1737C47.2854 12.0334 47.0273 12.7287 46.5161 13.2421C45.9353 13.8501 45.1759 14.1591 44.2576 14.1591ZM79.8988 14.0271H78.9483L76.0371 9.34949L76.0619 10.1918V14.0246H75.1114V7.83184H76.196L76.2257 7.87919L78.9632 12.2851L78.9384 11.4453V7.83184H79.8988V14.0271ZM63.921 14.0271H62.958V8.76386H61.2878V7.83184H65.5887V8.76386H63.9185V14.0271H63.921ZM60.5035 14.0271H59.5431V7.83184H60.5035V14.0271ZM55.1056 14.0271H54.1451V8.76386H52.4749V7.83184H56.7758V8.76386H55.1056V14.0271ZM51.8668 14.0171H48.1838V7.83184H51.8668V8.76386H49.1468V10.4634H51.6013V11.3855H49.1468V13.0851H51.8668V14.0171ZM69.5075 12.5792C69.9368 13.0103 70.458 13.2271 71.0636 13.2271C71.6865 13.2271 72.1953 13.0153 72.6197 12.5792C73.0416 12.1555 73.255 11.5998 73.255 10.9294C73.255 10.2591 73.0416 9.70087 72.6222 9.27971C72.1928 8.84859 71.6691 8.63178 71.0661 8.63178C70.4431 8.63178 69.9344 8.8436 69.5125 9.27971C69.0906 9.70336 68.8771 10.2591 68.8771 10.9294C68.8771 11.5998 69.0881 12.158 69.5075 12.5792Z" fill="white"/>
<path id="Vector_4" fill-rule="evenodd" clip-rule="evenodd" d="M67.8001 22.6771C65.4547 22.6771 63.5537 24.4639 63.5537 26.9285C63.5537 29.3707 65.4671 31.1799 67.8001 31.1799C70.1454 31.1799 72.0465 29.3807 72.0465 26.9285C72.0465 24.4639 70.1454 22.6771 67.8001 22.6771ZM67.8001 29.4953C66.517 29.4953 65.4125 28.4287 65.4125 26.9185C65.4125 25.3859 66.5194 24.3418 67.8001 24.3418C69.0832 24.3418 70.1876 25.3859 70.1876 26.9185C70.1901 28.4387 69.0832 29.4953 67.8001 29.4953ZM58.5354 22.6771C56.1901 22.6771 54.289 24.4639 54.289 26.9285C54.289 29.3707 56.2025 31.1799 58.5354 31.1799C60.8807 31.1799 62.7818 29.3807 62.7818 26.9285C62.7818 24.4639 60.8783 22.6771 58.5354 22.6771ZM58.5354 29.4953C57.2523 29.4953 56.1479 28.4287 56.1479 26.9185C56.1479 25.3859 57.2548 24.3418 58.5354 24.3418C59.8185 24.3418 60.9229 25.3859 60.9229 26.9185C60.9229 28.4387 59.8185 29.4953 58.5354 29.4953ZM47.5112 23.9754V25.7747H51.8122C51.6806 26.784 51.3481 27.5291 50.8393 28.04C50.2089 28.6729 49.236 29.3607 47.5211 29.3607C44.878 29.3607 42.8106 27.2176 42.8106 24.5636C42.8106 21.9095 44.878 19.7664 47.5211 19.7664C48.9481 19.7664 49.988 20.3321 50.7599 21.0548L52.0306 19.7788C50.9584 18.7471 49.5314 17.9572 47.531 17.9572C43.9051 17.9572 40.8624 20.9227 40.8624 24.5536C40.8624 28.1945 43.9026 31.15 47.531 31.15C49.4892 31.15 50.9584 30.5071 52.1199 29.2959C53.3037 28.1072 53.6785 26.4301 53.6785 25.0769C53.6785 24.6558 53.6462 24.277 53.5792 23.9555H47.5087C47.5112 23.953 47.5112 23.9754 47.5112 23.9754ZM92.6034 25.376C92.2485 24.4215 91.1763 22.6671 88.9774 22.6671C86.7984 22.6671 84.9867 24.3891 84.9867 26.9185C84.9867 29.3059 86.7785 31.17 89.1884 31.17C91.1242 31.17 92.251 29.9813 92.7151 29.2835L91.2781 28.3166C90.8016 29.0268 90.1389 29.4928 89.1983 29.4928C88.2478 29.4928 87.5827 29.0592 87.1409 28.2044L92.8019 25.8494C92.8019 25.8519 92.6034 25.376 92.6034 25.376ZM86.8307 26.7964C86.786 25.1542 88.1014 24.3193 89.042 24.3193C89.784 24.3193 90.402 24.6857 90.613 25.219L86.8307 26.7964ZM82.2319 30.9158H84.0907V18.4257H82.2319V30.9158ZM79.1792 23.6216H79.1122C78.6928 23.1207 77.8961 22.6671 76.8786 22.6671C74.7665 22.6671 72.8208 24.5336 72.8208 26.931C72.8208 29.3184 74.7566 31.1625 76.8786 31.1625C77.8837 31.1625 78.6928 30.7064 79.1122 30.1956H79.1792V30.8061C79.1792 32.4284 78.3155 33.3031 76.9232 33.3031C75.7841 33.3031 75.0768 32.4808 74.7889 31.793L73.1732 32.4708C73.6373 33.5922 74.8757 34.9803 76.9208 34.9803C79.0998 34.9803 80.9463 33.6919 80.9463 30.5494V22.9213H79.1891V23.6216C79.1916 23.6216 79.1792 23.6216 79.1792 23.6216ZM77.0448 29.4953C75.7617 29.4953 74.6896 28.4187 74.6896 26.931C74.6896 25.4308 75.7617 24.3443 77.0448 24.3443C78.3155 24.3443 79.3008 25.4432 79.3008 26.931C79.3132 28.4187 78.318 29.4953 77.0448 29.4953ZM101.307 18.4257H96.8622V30.9158H98.7211V26.1859H101.31C103.367 26.1859 105.39 24.6882 105.39 22.3108C105.39 19.9333 103.374 18.4257 101.307 18.4257ZM101.362 24.4414H98.7186V20.1551H101.362C102.754 20.1551 103.541 21.3089 103.541 22.2983C103.541 23.2777 102.744 24.4414 101.362 24.4414ZM112.84 22.6547C111.49 22.6547 110.098 23.2552 109.522 24.5636L111.17 25.2514C111.525 24.5636 112.175 24.3293 112.862 24.3293C113.825 24.3293 114.798 24.9075 114.821 25.9392V26.0712C114.488 25.8818 113.758 25.5928 112.885 25.5928C111.105 25.5928 109.301 26.5696 109.301 28.4013C109.301 30.0784 110.76 31.155 112.386 31.155C113.634 31.155 114.322 30.5893 114.751 29.9339H114.818V30.9008H116.61V26.1161C116.61 23.8882 114.962 22.6547 112.84 22.6547ZM112.607 29.4953C111.999 29.4953 111.148 29.1963 111.148 28.4287C111.148 27.4618 112.21 27.0955 113.116 27.0955C113.935 27.0955 114.322 27.2724 114.808 27.5166C114.674 28.638 113.731 29.4853 112.607 29.4953ZM123.147 22.9213L121.013 28.339H120.946L118.734 22.9213H116.734L120.052 30.4946L118.161 34.7037H120.097L125.202 22.9213H123.147ZM106.415 30.9158H108.274V18.4257H106.415V30.9158Z" fill="white"/>
<path id="Vector_5" fill-rule="evenodd" clip-rule="evenodd" d="M10.3783 8.46487C10.0904 8.77637 9.92413 9.25235 9.92413 9.87536V31.9723C9.92413 32.5953 10.0904 33.0713 10.3882 33.3703L10.4652 33.4376L22.7948 21.0572V20.7805L10.4552 8.39758L10.3783 8.46487Z" fill="url(#paint0_linear_4_2572)"/>
<path id="Vector_6" fill-rule="evenodd" clip-rule="evenodd" d="M26.8972 25.1964L22.7849 21.0671V20.778L26.8972 16.6487L26.9866 16.7035L31.851 19.4796C33.2433 20.2671 33.2433 21.568 31.851 22.3654L26.9866 25.1416L26.8972 25.1964Z" fill="url(#paint1_linear_4_2572)"/>
<path id="Vector_7" fill-rule="evenodd" clip-rule="evenodd" d="M26.9866 25.1416L22.7848 20.9226L10.3782 33.3803C10.8324 33.8688 11.5943 33.9236 12.4456 33.4476L26.9866 25.1416Z" fill="url(#paint2_linear_4_2572)"/>
<path id="Vector_8" fill-rule="evenodd" clip-rule="evenodd" d="M26.9866 16.7036L12.4456 8.4101C11.5943 7.92166 10.8299 7.98895 10.3782 8.47739L22.7848 20.9226L26.9866 16.7036Z" fill="url(#paint3_linear_4_2572)"/>
<path id="Vector_9" opacity="0.2" fill-rule="evenodd" clip-rule="evenodd" d="M26.8973 25.0519L12.4555 33.2905C11.6489 33.7566 10.9292 33.7242 10.4651 33.3005L10.3881 33.3778L10.4651 33.445C10.9292 33.8662 11.6489 33.9011 12.4555 33.4351L26.9965 25.1416L26.8973 25.0519Z" fill="black"/>
<path id="Vector_10" opacity="0.12" fill-rule="evenodd" clip-rule="evenodd" d="M31.851 22.221L26.8849 25.0519L26.9742 25.1416L31.8386 22.3655C32.536 21.9668 32.8785 21.4434 32.8785 20.9226C32.8363 21.4011 32.4814 21.8546 31.851 22.221Z" fill="black"/>
<path id="Vector_11" opacity="0.25" fill-rule="evenodd" clip-rule="evenodd" d="M12.4457 8.5546L31.851 19.6243C32.4814 19.9806 32.8363 20.4466 32.8909 20.9226C32.8909 20.4018 32.5484 19.8784 31.851 19.4797L12.4457 8.41006C11.0534 7.61012 9.92413 8.27798 9.92413 9.87538V10.0199C9.92413 8.42003 11.0534 7.76462 12.4457 8.5546Z" fill="white"/>
</g>
<defs>
<linearGradient id="paint0_linear_4_2572" x1="21.6889" y1="9.63696" x2="1.92816" y2="14.8806" gradientUnits="userSpaceOnUse">
<stop stop-color="#00A0FF"/>
<stop offset="0.00657" stop-color="#00A1FF"/>
<stop offset="0.2601" stop-color="#00BEFF"/>
<stop offset="0.5122" stop-color="#00D2FF"/>
<stop offset="0.7604" stop-color="#00DFFF"/>
<stop offset="1" stop-color="#00E3FF"/>
</linearGradient>
<linearGradient id="paint1_linear_4_2572" x1="33.6667" y1="20.9226" x2="9.5856" y2="20.9226" gradientUnits="userSpaceOnUse">
<stop stop-color="#FFE000"/>
<stop offset="0.4087" stop-color="#FFBD00"/>
<stop offset="0.7754" stop-color="#FFA500"/>
<stop offset="1" stop-color="#FF9C00"/>
</linearGradient>
<linearGradient id="paint2_linear_4_2572" x1="24.7018" y1="23.2184" x2="8.75009" y2="49.9563" gradientUnits="userSpaceOnUse">
<stop stop-color="#FF3A44"/>
<stop offset="1" stop-color="#C31162"/>
</linearGradient>
<linearGradient id="paint3_linear_4_2572" x1="7.25411" y1="1.11514" x2="14.3708" y2="13.0568" gradientUnits="userSpaceOnUse">
<stop stop-color="#32A071"/>
<stop offset="0.0685" stop-color="#2DA771"/>
<stop offset="0.4762" stop-color="#15CF74"/>
<stop offset="0.8009" stop-color="#06E775"/>
<stop offset="1" stop-color="#00F076"/>
</linearGradient>
<clipPath id="clip0_4_2572">
<rect width="134.907" height="39.9723" fill="white" transform="translate(-0.00561523 0.936401)"/>
</clipPath>
</defs>
</svg>
