<svg width="33" height="33" viewBox="0 0 33 33" fill="none" xmlns="http://www.w3.org/2000/svg">
<g id="iconfinder_business_finance_money-13_2784281 1">
<g id="1">
<path id="Vector" d="M21.8243 28.8688H7.11188C6.32443 28.8679 5.56947 28.5548 5.01266 27.998C4.45584 27.4411 4.14267 26.6862 4.14185 25.8987V17.1183C4.14267 16.3309 4.45584 15.5759 5.01266 15.0191C5.56947 14.4623 6.32443 14.1491 7.11188 14.1483H21.8243C22.6117 14.1491 23.3667 14.4623 23.9235 15.0191C24.4803 15.5759 24.7935 16.3309 24.7943 17.1183V25.8987C24.7935 26.6862 24.4803 27.4411 23.9235 27.998C23.3667 28.5548 22.6117 28.8679 21.8243 28.8688ZM7.11188 16.01C6.81803 16.0103 6.53632 16.1272 6.32853 16.335C6.12075 16.5428 6.00388 16.8245 6.00355 17.1183V25.8987C6.00388 26.1926 6.12075 26.4743 6.32853 26.6821C6.53632 26.8899 6.81803 27.0067 7.11188 27.0071H21.8243C22.1181 27.0067 22.3999 26.8899 22.6076 26.6821C22.8154 26.4743 22.9323 26.1926 22.9326 25.8987V17.1183C22.9323 16.8245 22.8154 16.5428 22.6076 16.335C22.3999 16.1272 22.1181 16.0103 21.8243 16.01H7.11188Z" fill="#E35F27"/>
<path id="Vector_2" d="M25.9957 23.8558H23.8635C23.6166 23.8558 23.3798 23.7578 23.2053 23.5832C23.0307 23.4086 22.9326 23.1719 22.9326 22.925C22.9326 22.6781 23.0307 22.4413 23.2053 22.2668C23.3798 22.0922 23.6166 21.9941 23.8635 21.9941H25.9957C26.2894 21.9935 26.5708 21.8765 26.7783 21.6687C26.9858 21.461 27.1025 21.1794 27.1028 20.8858V12.1054C27.1027 11.8117 26.986 11.53 26.7785 11.3221C26.571 11.1142 26.2895 10.9971 25.9957 10.9964H11.2833C10.9895 10.9968 10.7078 11.1136 10.5 11.3214C10.2922 11.5292 10.1753 11.8109 10.175 12.1048V15.0785C10.175 15.3254 10.0769 15.5622 9.90236 15.7367C9.72779 15.9113 9.49102 16.0094 9.24414 16.0094C8.99727 16.0094 8.7605 15.9113 8.58593 15.7367C8.41136 15.5622 8.31329 15.3254 8.31329 15.0785V12.1054C8.31395 11.3178 8.62706 10.5627 9.18389 10.0058C9.74071 9.44882 10.4958 9.13556 11.2833 9.13474H25.9957C26.7831 9.13589 27.5378 9.44929 28.0944 10.0062C28.6509 10.5631 28.9639 11.318 28.9645 12.1054V20.8858C28.9637 21.673 28.6507 22.4278 28.0942 22.9846C27.5376 23.5414 26.783 23.8547 25.9957 23.8558Z" fill="#E35F27"/>
<path id="Vector_3" d="M23.8635 22.2157H5.0727C4.82582 22.2157 4.58905 22.1176 4.41449 21.943C4.23992 21.7685 4.14185 21.5317 4.14185 21.2848V18.1584C4.14185 17.9115 4.23992 17.6748 4.41449 17.5002C4.58905 17.3256 4.82582 17.2276 5.0727 17.2276H23.8635C24.1104 17.2276 24.3471 17.3256 24.5217 17.5002C24.6963 17.6748 24.7943 17.9115 24.7943 18.1584V21.2848C24.7943 21.5317 24.6963 21.7685 24.5217 21.943C24.3471 22.1176 24.1104 22.2157 23.8635 22.2157ZM6.00355 20.354H22.9326V19.0893H6.00355V20.354Z" fill="#E35F27"/>
</g>
</g>
</svg>
